<?xml version="1.0" standalone="no"?>
<!DOCTYPE svg PUBLIC "-//W3C//DTD SVG 20010904//EN"
 "http://www.w3.org/TR/2001/REC-SVG-20010904/DTD/svg10.dtd">
<svg version="1.0" xmlns="http://www.w3.org/2000/svg"
 width="96.000000pt" height="96.000000pt" viewBox="0 0 96.000000 96.000000"
 preserveAspectRatio="xMidYMid meet">
<metadata>
Created by potrace 1.14, written by Peter Selinger 2001-2017
</metadata>
<g transform="translate(0.000000,96.000000) scale(0.100000,-0.100000)"
fill="#000000" stroke="none">
<path d="M95 686 c-41 -18 -83 -69 -91 -111 -15 -84 33 -166 111 -187 35 -10
46 -18 59 -49 45 -102 168 -130 251 -57 19 16 38 41 41 54 7 26 24 33 24 9 0
-27 73 -93 113 -100 80 -15 163 29 186 98 9 27 19 35 55 45 28 7 54 24 74 46
102 116 0 290 -153 262 -42 -8 -103 -58 -111 -92 -8 -31 -20 -31 -28 0 -3 13
-22 38 -41 54 -61 55 -149 55 -210 0 -19 -16 -38 -41 -41 -54 -7 -26 -24 -33
-24 -10 0 23 -51 78 -87 92 -40 17 -89 17 -128 0z m146 -63 c34 -35 47 -73 25
-73 -25 0 -84 -59 -96 -96 -11 -32 -15 -35 -39 -30 -14 4 -40 23 -58 42 -27
30 -31 42 -29 80 3 46 31 87 71 105 36 16 96 3 126 -28z m320 0 c33 -35 47
-73 25 -73 -24 0 -77 -51 -94 -90 l-15 -35 -9 31 c-9 34 -69 94 -94 94 -33 0
16 81 61 101 36 16 96 3 126 -28z m320 1 c65 -63 35 -177 -52 -199 -24 -6 -28
-3 -39 29 -12 37 -71 96 -96 96 -33 0 16 81 61 101 35 15 95 3 126 -27z m-640
-167 c-19 -20 -31 -26 -31 -17 0 19 54 74 59 59 2 -6 -11 -25 -28 -42z m189
-16 c0 -10 -9 -6 -30 14 -16 16 -30 35 -30 44 0 10 9 6 30 -14 17 -16 30 -35
30 -44z m131 16 c-19 -20 -31 -26 -31 -17 0 19 54 74 59 59 2 -6 -11 -25 -28
-42z m189 -16 c0 -10 -9 -6 -30 14 -16 16 -30 35 -30 44 0 10 9 6 30 -14 17
-16 30 -35 30 -44z m-420 44 c0 -22 59 -84 86 -91 20 -5 23 -11 18 -28 -25
-83 -138 -111 -196 -48 -30 32 -43 72 -22 72 21 0 83 59 90 86 7 26 24 33 24
9z m320 1 c0 -21 47 -74 80 -91 34 -18 31 -41 -12 -81 -24 -24 -38 -29 -78
-29 -40 0 -54 5 -78 28 -33 32 -48 77 -26 77 21 0 84 60 90 86 7 26 24 33 24
10z"/>
</g>
</svg>
